<?xml version="1.0" standalone="no"?>
<!DOCTYPE svg PUBLIC "-//W3C//DTD SVG 20010904//EN"
 "http://www.w3.org/TR/2001/REC-SVG-20010904/DTD/svg10.dtd">
<svg version="1.0" xmlns="http://www.w3.org/2000/svg"
 width="128.000000pt" height="128.000000pt" viewBox="0 0 128.000000 128.000000"
 preserveAspectRatio="xMidYMid meet">
<metadata>
Created by potrace 1.10, written by Peter Selinger 2001-2011
</metadata>
<g transform="translate(0.000000,128.000000) scale(0.050000,-0.050000)"
fill="#000000" stroke="none">
<path d="M1153 2427 c-112 -112 -29 -307 130 -307 86 0 177 96 177 186 0 156
-195 233 -307 121z m176 -7 c152 -57 64 -290 -89 -237 -110 38 -123 172 -23
227 65 35 51 34 112 10z"/>
<path d="M871 2250 c-233 -96 -411 -251 -537 -470 -55 -97 -128 -332 -109
-352 24 -24 51 13 64 87 53 286 335 597 632 695 57 19 99 45 99 62 0 37 -9 36
-149 -22z"/>
<path d="M1540 2272 c0 -15 43 -43 95 -63 52 -19 135 -61 185 -91 93 -58 113
-60 93 -10 -22 60 -373 213 -373 164z"/>
<path d="M1260 1670 c0 -247 7 -390 20 -390 13 0 20 143 20 390 0 247 -7 390
-20 390 -13 0 -20 -143 -20 -390z"/>
<path d="M2053 1947 c-7 -8 8 -41 34 -75 150 -197 253 -532 142 -459 -38 25
-57 27 -74 10 -17 -17 -2 -32 61 -58 108 -45 113 -103 14 -156 -38 -21 -70
-44 -70 -50 0 -32 29 -34 72 -6 63 42 66 -15 8 -183 -88 -257 -284 -468 -548
-590 -157 -73 -185 -127 -41 -80 628 208 892 1034 503 1575 -61 85 -76 96
-101 72z"/>
<path d="M1748 1925 c-98 -66 -55 -209 67 -221 106 -11 168 131 88 203 -37 34
-117 43 -155 18z m121 -56 c58 -59 -36 -162 -99 -109 -36 30 -39 83 -6 116 33
33 67 30 105 -7z"/>
<path d="M1503 1541 c-90 -98 -156 -183 -147 -189 22 -13 369 336 351 354 -25
26 -39 15 -204 -165z"/>
<path d="M1013 1547 c-31 -32 -8 -49 60 -43 97 8 115 56 22 56 -38 0 -74 -6
-82 -13z"/>
<path d="M733 1527 c-31 -32 -8 -49 60 -43 97 8 115 56 22 56 -38 0 -74 -6
-82 -13z"/>
<path d="M1600 1520 c0 -11 22 -20 48 -20 27 0 63 -5 80 -12 21 -8 32 -1 32
20 0 24 -20 32 -80 32 -44 0 -80 -9 -80 -20z"/>
<path d="M1874 1493 c-8 -20 8 -32 50 -41 87 -17 96 -16 96 18 0 17 -17 30
-38 30 -21 0 -52 5 -68 11 -16 6 -34 -2 -40 -18z"/>
<path d="M501 1482 c-87 -24 -77 -70 11 -53 90 17 97 21 79 50 -15 23 -19 23
-90 3z"/>
<path d="M251 1201 c-6 -10 7 -24 30 -31 48 -15 69 -3 50 29 -16 26 -65 28
-80 2z"/>
<path d="M460 1114 c0 -31 110 -63 144 -42 28 18 -4 42 -79 57 -50 11 -65 7
-65 -15z"/>
<path d="M229 1045 c58 -319 404 -679 746 -775 95 -27 46 46 -54 80 -294 97
-580 411 -632 695 -8 47 -25 75 -43 75 -24 0 -28 -16 -17 -75z"/>
<path d="M1911 1093 c-21 -15 -29 -32 -17 -39 28 -17 132 14 141 42 11 33 -78
31 -124 -3z"/>
<path d="M740 1050 c0 -22 22 -30 80 -30 81 0 107 26 48 48 -59 23 -128 13
-128 -18z"/>
<path d="M1654 1066 c-47 -7 -74 -52 -28 -47 7 0 41 1 74 1 40 0 60 10 60 30
0 17 -11 29 -25 27 -14 -2 -50 -7 -81 -11z"/>
<path d="M1033 1047 c-31 -31 -8 -47 67 -47 44 0 80 8 80 18 0 34 -118 58
-147 29z"/>
<path d="M1395 1046 c-58 -15 -40 -46 27 -46 38 0 58 9 53 24 -9 28 -32 34
-80 22z"/>
<path d="M1158 382 c-117 -118 -43 -302 122 -302 168 0 245 201 118 308 -83
70 -165 68 -240 -6z m242 -73 c33 -60 7 -128 -63 -165 -104 -56 -223 56 -174
164 45 100 184 101 237 1z"/>
</g>
</svg>
